<svg xmlns="http://www.w3.org/2000/svg"  viewBox="0 0 64 64" width="64px" height="64px" baseProfile="basic"><ellipse cx="32" cy="61" opacity=".3" rx="24" ry="3"/><path fill="#fd3c4f" d="M58,41.664c0,4.13-2.878,7.686-6.911,8.575C46.941,51.154,40.74,52,32,52s-14.941-0.846-19.089-1.76	C8.878,49.351,6,45.794,6,41.664V23.794c0-3.898,2.564-7.332,6.307-8.422C16.448,14.166,22.825,13,32,13s15.552,1.166,19.693,2.372	C55.436,16.461,58,19.895,58,23.794V41.664z"/><path fill="#fff" d="M25,40.265V23.739c0-1.598,1.781-2.55,3.11-1.664l12.394,8.271c1.187,0.792,1.186,2.537-0.001,3.328	l-12.394,8.255C26.78,42.815,25,41.862,25,40.265z"/><path d="M53,34v7.665c0,1.786-1.229,3.304-2.988,3.692C46.611,46.106,40.726,47,32,47 c-2.727,0-4.936,2.187-4.99,4.901C28.574,51.964,30.232,52,32,52c8.74,0,14.941-0.846,19.089-1.76 C55.122,49.351,58,45.794,58,41.664V29C55.239,29,53,31.239,53,34z" opacity=".15"/><path fill="#fff" d="M32,18c2.719,0,4.921-2.174,4.988-4.878C35.425,13.044,33.766,13,32,13 c-9.175,0-15.552,1.166-19.693,2.372C8.564,16.461,6,19.895,6,23.794V38c2.761,0,5-2.239,5-5v-9.207 c0-1.668,1.112-3.158,2.704-3.621C17.108,19.181,23.046,18,32,18z" opacity=".3"/><path fill="none" stroke="#fff" stroke-linecap="round" stroke-linejoin="round" stroke-miterlimit="10" stroke-width="3" d="M9.5,29v-5.207c0-2.331,1.557-4.413,3.786-5.062"/></svg>